<svg xmlns="http://www.w3.org/2000/svg" xmlns:xlink="http://www.w3.org/1999/xlink" version="1.1" width="1080" height="1080" viewBox="0 0 1080 1080" xml:space="preserve">
<desc>Created with Fabric.js 3.5.0</desc>
<defs>
</defs>
<rect x="0" y="0" width="100%" height="100%" fill="#cfa595"/>
<g transform="matrix(2.0524 0 0 2.0524 538.1291 541.8687)" id="774883">
<g style="" vector-effect="non-scaling-stroke">
		<g transform="matrix(1 0 0 1 46.534 20.222)" id="Layer_1">
<circle style="stroke: none; stroke-width: 1; stroke-dasharray: none; stroke-linecap: butt; stroke-dashoffset: 0; stroke-linejoin: miter; stroke-miterlimit: 4; is-custom-font: none; font-file-url: none; fill: rgb(0,0,0); fill-rule: nonzero; opacity: 1;" cx="0" cy="0" r="10.577"/>
</g>
		<g transform="matrix(1 0 0 1 134.127 20.222)" id="Layer_1">
<circle style="stroke: none; stroke-width: 1; stroke-dasharray: none; stroke-linecap: butt; stroke-dashoffset: 0; stroke-linejoin: miter; stroke-miterlimit: 4; is-custom-font: none; font-file-url: none; fill: rgb(0,0,0); fill-rule: nonzero; opacity: 1;" cx="0" cy="0" r="10.577"/>
</g>
		<g transform="matrix(1 0 0 1 65.981 116.963)" id="Layer_1">
<path style="stroke: none; stroke-width: 1; stroke-dasharray: none; stroke-linecap: butt; stroke-dashoffset: 0; stroke-linejoin: miter; stroke-miterlimit: 4; is-custom-font: none; font-file-url: none; fill: rgb(0,0,0); fill-rule: nonzero; opacity: 1;" transform=" translate(-321.981, -372.963)" d="M 321.981 391.948 c 5.659 0 10.246 -4.587 10.246 -10.246 v -17.478 c 0 -5.659 -4.587 -10.246 -10.246 -10.246 c -5.659 0 -10.246 4.587 -10.246 10.246 v 17.478 C 311.735 387.361 316.323 391.948 321.981 391.948 z" stroke-linecap="round"/>
</g>
		<g transform="matrix(1 0 0 1 114.6745 116.964)" id="Layer_1">
<path style="stroke: none; stroke-width: 1; stroke-dasharray: none; stroke-linecap: butt; stroke-dashoffset: 0; stroke-linejoin: miter; stroke-miterlimit: 4; is-custom-font: none; font-file-url: none; fill: rgb(0,0,0); fill-rule: nonzero; opacity: 1;" transform=" translate(-370.6745, -372.964)" d="M 370.674 353.979 c -5.659 0 -10.245 4.587 -10.245 10.246 v 17.478 c 0 5.659 4.587 10.246 10.245 10.246 c 5.659 0 10.246 -4.587 10.246 -10.246 v -17.478 C 380.92 358.566 376.333 353.979 370.674 353.979 z" stroke-linecap="round"/>
</g>
		<g transform="matrix(1 0 0 1 -44.1704 -65.2499)" id="Layer_1">
<path style="stroke: none; stroke-width: 1; stroke-dasharray: none; stroke-linecap: butt; stroke-dashoffset: 0; stroke-linejoin: miter; stroke-miterlimit: 4; is-custom-font: none; font-file-url: none; fill: rgb(0,0,0); fill-rule: nonzero; opacity: 1;" transform=" translate(-211.8296, -190.7501)" d="M 233.912 181.205 c -3.604 -3.103 -9.039 -2.697 -12.142 0.908 c -1.056 1.226 -4.575 3.051 -9.939 3.051 c -5.366 0 -8.884 -1.825 -9.941 -3.053 c -3.103 -3.605 -8.539 -4.011 -12.142 -0.909 c -3.605 3.102 -4.011 8.539 -0.909 12.142 c 4.871 5.66 13.466 9.039 22.991 9.039 c 9.524 0 18.118 -3.379 22.989 -9.037 C 237.922 189.744 237.517 184.307 233.912 181.205 z" stroke-linecap="round"/>
</g>
		<g transform="matrix(1 0 0 1 0.0001 0.0005)" id="Layer_1">
<path style="stroke: none; stroke-width: 1; stroke-dasharray: none; stroke-linecap: butt; stroke-dashoffset: 0; stroke-linejoin: miter; stroke-miterlimit: 4; is-custom-font: none; font-file-url: none; fill: rgb(0,0,0); fill-rule: nonzero; opacity: 1;" transform=" translate(-256.0002, -256.0005)" d="M 429.655 202.573 c 4.755 0 8.61 -3.855 8.61 -8.61 c 0 0 0 -50.667 0 -50.73 c 0 -4.692 -3.928 -8.61 -8.61 -8.61 c -19.167 0 -35.934 11.255 -43.776 27.645 c -5.388 -3.754 -11.928 -5.963 -18.977 -5.963 h -41.15 c -7.05 0 -13.589 2.209 -18.977 5.963 c -2.479 -5.18 -5.855 -9.838 -9.91 -13.799 c 1.335 -3.722 2.034 -7.661 2.034 -11.665 v -18.558 c 6.254 -3.014 11.19 -8.479 13.424 -15.433 c 4.375 -13.62 -3.147 -28.262 -16.767 -32.638 c -1.169 -0.375 -2.395 -0.74 -3.671 -1.095 C 286.092 29.871 252.096 0 211.834 0 c -10.303 0 -20.355 1.919 -29.88 5.706 c -4.419 1.756 -6.577 6.763 -4.82 11.182 c 1.756 4.419 6.762 6.576 11.182 4.82 c 7.492 -2.978 15.404 -4.488 23.52 -4.488 c 29.475 0 54.699 20.325 61.756 47.994 c -2.683 -0.428 -5.486 -0.824 -8.375 -1.192 c -34.077 -4.345 -68.777 -4.516 -102.89 -0.478 c -0.99 0.117 -12.047 0.899 -12.243 1.668 c 2.733 -10.716 8.243 -20.629 16.046 -28.663 c 3.313 -3.411 3.233 -8.863 -0.178 -12.175 c -3.411 -3.312 -8.861 -3.233 -12.175 0.178 c -11.853 12.206 -19.524 27.83 -21.998 44.531 c -1.279 0.356 -2.508 0.722 -3.678 1.099 c -13.62 4.377 -21.138 19.02 -16.761 32.641 c 2.236 6.956 7.174 12.423 13.431 15.434 v 18.548 c 0 7.269 2.258 14.017 6.102 19.591 v 2.023 c 0 14.977 4.103 29.007 11.221 41.053 c -7.98 7.687 -13.241 17.755 -14.994 28.689 c -30.064 3.91 -53.364 29.665 -53.364 60.776 v 7.933 c 0 4.755 3.855 8.61 8.61 8.61 c 4.756 0 8.61 -3.855 8.61 -8.61 v -7.933 c 0 -21.364 15.275 -39.229 35.478 -43.243 v 85.62 c 0 4.755 3.855 8.61 8.61 8.61 h 44.993 L 150.492 375.4 h -43.761 c -8.7 0 -15.777 -7.077 -15.777 -15.777 v -33.037 c 0 -4.755 -3.854 -8.61 -8.61 -8.61 c -4.755 0 -8.61 3.855 -8.61 8.61 v 33.034 c 0 18.195 14.804 32.997 32.997 32.997 h 19.701 v 44.097 l -50.717 61.181 c -2.13 2.569 -2.583 6.137 -1.164 9.158 c 1.419 3.02 4.455 4.948 7.793 4.948 h 300.722 c 30.438 0 55.201 -24.763 55.201 -55.201 V 285.458 V 223.68 c 0 -4.755 -3.855 -8.61 -8.61 -8.61 c -4.755 0 -8.61 3.855 -8.61 8.61 v 61.778 c 0 3.022 -0.761 6.238 -2.26 9.559 c -16.397 36.306 -24.711 73.484 -24.712 110.508 v 3.755 c 0 11.122 -9.049 20.172 -20.172 20.172 h -55.147 c -10.362 0 -18.917 -7.857 -20.038 -17.925 c -0.007 -0.063 -0.023 -0.123 -0.029 -0.186 c -0.823 -8.036 -0.202 -16.293 -0.817 -24.378 c -0.65 -8.539 -1.714 -17.059 -3.217 -25.49 c -0.031 -0.173 -0.063 -0.346 -0.094 -0.518 c -3.973 -22.144 -10.869 -44.197 -20.688 -65.937 c -1.5 -3.322 -2.26 -6.538 -2.26 -9.559 v -15.2 c 0 0 0 -60.684 0 -60.717 v -46.748 v -9.742 c 11.636 3.344 20.568 13.509 22.331 25.49 c 0.551 3.661 -1.472 7.352 -1.472 11.046 v 17.542 c 0 12.913 9.908 23.494 22.556 24.09 c 0.762 0.036 1.52 0.034 2.272 0 c 0.098 -0.005 0.193 -0.021 0.292 -0.026 c 5.034 -0.293 9.772 -2.144 13.665 -5.375 c -0.078 0.064 5.691 3.472 6.277 3.714 c 2.646 1.092 5.585 1.655 8.444 1.698 c 0.118 0.001 0.234 0.016 0.354 0.016 c 5.415 0 10.848 -1.942 15.074 -5.428 c 3.958 3.286 8.791 5.15 13.943 5.398 c 0.757 0.036 1.518 0.038 2.285 0.002 c 12.649 -0.596 22.556 -11.177 22.556 -24.09 v -17.542 c 0 -3.435 -0.576 -6.824 -1.573 -10.104 c -0.006 -0.018 -0.009 -0.037 -0.016 -0.056 c 1.492 -12.673 10.573 -22.961 22.448 -26.375 v 40.912 C 421.045 198.718 424.9 202.573 429.655 202.573 z M 263.006 134.705 c -2.607 0.202 -5.101 1.053 -6.802 3.248 c -3.156 4.072 -1.814 11.36 -1.814 16.232 h -17.264 c -0.164 0 -0.297 -0.133 -0.297 -0.297 v -0.431 c 0 -13.527 -11 -24.737 -24.52 -24.99 l -0.464 -0.005 c -13.788 0 -25.005 11.405 -25.005 25.424 c 0 0.164 -0.133 0.297 -0.297 0.297 h -27.172 c -9.404 0 -17.381 -7.997 -17.381 -17.381 c 0 0 0 -16.667 0.021 -16.673 c 0.455 -0.108 0.903 -0.243 1.352 -0.377 c 0.205 -0.06 0.413 -0.107 0.619 -0.172 c 21.597 -6.922 45.39 -6.763 67.855 -6.763 c 11.779 0 23.565 0.336 35.3 1.38 c 10.934 0.972 22.051 2.008 32.553 5.381 c 0.657 0.211 1.32 0.394 1.992 0.552 v 16.67 c 0 0.509 -0.023 1.015 -0.067 1.518 c -5.129 -2.138 -10.601 -3.369 -16.234 -3.641 C 264.59 134.643 263.793 134.644 263.006 134.705 z M 260.33 314.325 c -2.029 2.435 -5.735 2.768 -8.165 0.745 c -3.655 -3.042 -9.083 -2.547 -12.125 1.107 c -3.009 3.613 -2.5 9.123 1.107 12.126 c 2.364 1.968 2.805 5.692 0.746 8.165 c -1.103 1.325 -2.728 2.085 -4.455 2.088 c -5.898 0.009 -10.575 -6.552 -15.836 -0.236 c -6.166 7.405 7.567 13.428 1.852 20.291 c -1.104 1.326 -2.73 2.087 -4.461 2.088 c -2.893 0.001 -4.829 -2.667 -7.623 -3.19 c -3.042 -0.571 -6.227 0.576 -8.207 2.954 c -1.34 1.61 -1.993 3.562 -1.993 5.505 c 0 4.575 4.78 6.353 5.164 10.549 c 0.141 1.541 -0.326 3.043 -1.316 4.234 c -2.024 2.435 -5.743 2.768 -8.167 0.75 c -3.655 -3.043 -9.084 -2.547 -12.126 1.107 c -2.942 3.534 -2.535 9.095 1.107 12.126 c 2.457 2.046 2.791 5.708 0.746 8.163 c -3.09 3.713 -6.492 1.207 -9.835 -0.346 c -3.591 -1.668 -7.88 -0.898 -10.457 2.198 c -2.934 3.524 -2.529 9.098 1.107 12.126 c 2.43 2.024 2.766 5.734 0.748 8.161 c -2.024 2.434 -5.748 2.763 -8.168 0.749 c -1.936 -1.612 -3.573 -3.523 -4.865 -5.683 c -4.862 -8.12 -4.059 -18.462 1.998 -25.735 l 19.673 -23.625 c 0 0 28.246 -33.92 28.247 -33.923 l 41.58 -49.933 c 2.14 -2.569 4.812 -4.578 7.785 -5.95 v 4.523 c 0 5.482 1.273 11.083 3.787 16.647 C 259.869 305.852 263.649 310.341 260.33 314.325 z M 241.828 214.682 c -9.153 4.907 -19.613 7.478 -29.994 7.478 c -13.633 0 -27.187 -4.524 -38.104 -12.689 c -0.07 -0.053 -0.141 -0.103 -0.211 -0.156 c -4.382 -3.295 -8.322 -7.16 -11.719 -11.462 c -0.217 -0.274 -0.434 -0.549 -0.646 -0.828 c -5.985 -7.837 -10.202 -17.093 -12.036 -27.171 c 0.038 0.011 0.077 0.02 0.116 0.031 c 3.267 0.985 6.72 1.518 10.136 1.518 h 27.172 c 9.659 0 17.517 -7.858 17.517 -17.517 c 0 -4.447 3.565 -8.204 7.785 -8.204 l 0.142 0.001 c 4.203 0.079 7.623 3.566 7.623 7.773 v 0.43 c 0 9.659 7.858 17.517 17.517 17.517 h 17.264 v 34.437 C 250.534 209.313 246.326 212.272 241.828 214.682 z M 133.369 86.575 c 2.433 -0.782 5.156 -1.515 8.124 -2.201 c 0.033 -0.007 0.067 -0.009 0.1 -0.017 c 22.97 -5.256 46.758 -6.207 70.242 -6.207 c 23.408 0 47.33 1.083 70.242 6.207 c 0.032 0.007 0.065 0.009 0.098 0.016 c 2.965 0.684 5.685 1.417 8.115 2.198 c 4.581 1.472 7.11 6.396 5.639 10.976 c -1.006 3.131 -3.636 5.366 -6.784 5.919 c -0.063 0.008 -0.126 0.009 -0.189 0.02 c -1.318 0.207 -2.73 0.108 -4.003 -0.3 c -3.095 -0.991 -6.264 -1.743 -9.445 -2.399 c -13.537 -2.795 -35.158 -5.187 -63.674 -5.187 c -23.91 0 -50.104 0.189 -73.126 7.588 c -1.296 0.417 -2.679 0.507 -4.024 0.316 c -0.02 -0.002 -0.039 -0.002 -0.057 -0.006 c -3.197 -0.518 -5.877 -2.777 -6.895 -5.947 C 126.26 92.971 128.789 88.048 133.369 86.575 z M 143.652 322.699 v -86.463 c 0 -8.515 3.206 -16.613 8.825 -22.785 c 3.686 3.964 7.796 7.552 12.192 10.709 c 0.208 0.149 0.417 0.298 0.626 0.445 c 13.177 9.293 29.226 14.775 46.54 14.775 c 14.82 0 29.763 -4.183 42.384 -11.966 c 0.056 -0.034 0.115 -0.067 0.171 -0.102 v 35.45 c -8.162 1.988 -15.556 6.543 -21.018 13.102 l -38.999 46.833 h -50.721 V 322.699 z M 383.064 494.78 h -282.4 l 47.089 -56.805 c 0.393 0.355 0.793 0.701 1.201 1.041 c 4.128 3.437 9.356 5.33 14.722 5.33 c 6.859 0 13.309 -3.022 17.695 -8.289 c 3.395 -4.075 5.243 -9.083 5.329 -14.311 c 5.095 -1.029 9.719 -3.759 13.11 -7.832 c 3.484 -4.184 5.229 -9.247 5.316 -14.309 c 5.098 -1.027 9.728 -3.757 13.122 -7.834 c 3.395 -4.077 5.244 -9.083 5.329 -14.311 c 5.094 -1.029 9.718 -3.759 13.109 -7.832 c 3.395 -4.077 5.244 -9.083 5.329 -14.311 c 5.094 -1.029 9.718 -3.759 13.109 -7.832 c 3.395 -4.075 5.244 -9.082 5.329 -14.311 c 3.026 -0.611 5.886 -1.822 8.419 -3.559 c 3.607 10.97 6.436 21.982 8.485 32.998 c 0.036 0.193 0.07 0.386 0.106 0.579 c 4.595 25.046 3.9 50.465 3.9 75.805 c 0 20.617 16.774 37.392 37.392 37.392 h 55.147 c 20.617 0 37.392 -16.774 37.392 -37.392 v -29.718 c 0 -23.939 3.072 -47.843 9.753 -70.85 v 118.369 C 421.045 477.742 404.008 494.78 383.064 494.78 z M 373.901 446.672 c 6.958 0 13.948 -2.003 19.835 -5.717 c 0.084 -0.053 0.172 -0.098 0.256 -0.152 c -0.915 10.28 -9.577 18.367 -20.091 18.367 h -55.147 c -10.515 0 -19.176 -8.087 -20.091 -18.367 c 0.08 0.052 0.166 0.095 0.248 0.147 c 5.894 3.699 12.882 5.723 19.844 5.723 h 55.146 V 446.672 z M 382.966 207.128 c 0 3.639 -2.756 6.728 -6.148 6.888 c -3.363 0.162 -6.374 -2.386 -6.75 -5.732 c -0.001 -0.018 -0.006 -0.036 -0.008 -0.053 c -0.023 -0.223 -0.036 -0.449 -0.036 -0.677 c 0 -4.755 -3.861 -8.61 -8.617 -8.61 c -4.755 0 -8.61 3.855 -8.61 8.61 c 0 0.223 -0.012 0.443 -0.033 0.66 c -0.332 3.259 -3.093 5.81 -6.437 5.81 s -6.105 -2.551 -6.437 -5.81 c -0.023 -0.217 -0.033 -0.437 -0.033 -0.66 c 0 -4.699 -3.926 -8.61 -8.617 -8.61 c -4.755 0 -8.61 3.855 -8.61 8.61 c 0 0.23 -0.012 0.456 -0.034 0.678 c -0.001 0.011 -0.005 0.024 -0.006 0.036 c -0.365 3.336 -3.262 5.906 -6.754 5.748 c -3.389 -0.16 -6.146 -3.25 -6.146 -6.888 v -17.542 c 0 -8.734 7.344 -16.063 16.063 -16.063 c 0.001 0 41.129 0 41.15 0 c 8.585 0 16.063 7.433 16.063 16.063 V 207.128 z" stroke-linecap="round"/>
</g>
</g>
</g>
</svg>